# xmcd
#
# Track frame offsets: 
#        150
#        13045
#        23854
#        37755
#        49237
#        60255
#        72313
#        85275
#        100247
#        116057
#        127690
#        140200
#
# Disc length: 2090 seconds
#
# Revision: 0
# Processed by: cddbd v1.5.2PL0 Copyright (c) Steve Scherf et al.
# Submitted via: ExactAudioCopy v1.0b1
#
DISCID=9c08280c
DTITLE=Hot Buskers - Sweet Street Promenade
DYEAR=2013
DGENRE=Country
TTITLE0=Some Of These Days
TTITLE1=Comes Love
TTITLE2=Ghost Town
TTITLE3=Ol' Cook Pot
TTITLE4=You Don't Have To Tell Me
TTITLE5=Turn Around
TTITLE6=Inside Out
TTITLE7=Language Of The Blues
TTITLE8=Old Yazoo
TTITLE9=Bugs
TTITLE10=Silver Dew On The Bluegrass Tonight
TTITLE11=Down By The Water
EXTD=
EXTT0=
EXTT1=
EXTT2=
EXTT3=
EXTT4=
EXTT5=
EXTT6=
EXTT7=
EXTT8=
EXTT9=
EXTT10=
EXTT11=
PLAYORDER=
